<!-- Generated by IcoMoon.io -->
<svg version="1.1" xmlns="http://www.w3.org/2000/svg" width="75" height="32" viewBox="0 0 75 32">
<path fill="#f4f4fd" d="M0.999 0.080h73.431c0.554 0 1.004 0.449 1.004 1.004v29.831c0 0.554-0.449 1.004-1.004 1.004h-73.431c-0.554 0-1.004-0.449-1.004-1.004v-29.831c0-0.554 0.449-1.004 1.004-1.004z"></path>
<path fill="#4d5ae5" d="M37.098 15.406h0.612v2.752h-0.612v-2.752z"></path>
<path fill="#4d5ae5" d="M39.544 16.629h0.612v1.529h-0.612v-1.529z"></path>
<path fill="#4d5ae5" d="M34.651 17.547h0.612v0.612h-0.612v-0.612z"></path>
<path fill="#4d5ae5" d="M32.817 17.241h0.612v0.917h-0.612v-0.917z"></path>
<path fill="#2e2f42" d="M29.453 23.051h14.679c0.507 0 0.917-0.411 0.917-0.917v-1.223c0-0.507-0.411-0.917-0.917-0.917h-0.306v-7.626l1.737-1.645c0.403 0.199 0.891 0.078 1.155-0.286s0.227-0.865-0.087-1.187c-0.315-0.321-0.815-0.369-1.185-0.113s-0.501 0.741-0.311 1.149l-1.309 1.241v-0.706c0-0.507-0.411-0.917-0.917-0.917h-12.232c-0.507 0-0.918 0.411-0.918 0.917v9.174h-0.306c-0.507 0-0.917 0.411-0.917 0.917v1.223c0 0.507 0.411 0.917 0.917 0.917zM45.966 9.596c0.169 0 0.306 0.137 0.306 0.306s-0.137 0.306-0.306 0.306c-0.169 0-0.306-0.137-0.306-0.306s0.137-0.306 0.306-0.306zM30.37 10.819c0-0.169 0.137-0.306 0.306-0.306h12.232c0.169 0 0.306 0.137 0.306 0.306v1.284l-0.612 0.581v-1.254c0-0.169-0.137-0.306-0.306-0.306h-11.009c-0.169 0-0.306 0.137-0.306 0.306v7.645c0 0.169 0.137 0.306 0.306 0.306h11.009c0.169 0 0.306-0.137 0.306-0.306v-5.55l0.612-0.579v7.047h-12.843v-9.174zM33.123 14.794c-0.414-0.001-0.777 0.274-0.887 0.673s0.060 0.822 0.416 1.033c0.356 0.211 0.809 0.158 1.106-0.13l1.063 0.533c0.123 0.062 0.273 0.033 0.365-0.070l2.259-2.542 2.221 1.664c0.119 0.089 0.286 0.080 0.394-0.023l1.931-1.829v4.665h-10.397v-7.033h10.397v1.526l-2.164 2.049-2.24-1.679c-0.127-0.095-0.306-0.077-0.412 0.041l-2.291 2.577-0.856-0.428c0.006-0.037 0.010-0.074 0.012-0.111 0-0.507-0.411-0.917-0.917-0.917zM33.428 15.712c0 0.169-0.137 0.306-0.306 0.306s-0.306-0.137-0.306-0.306 0.137-0.306 0.306-0.306c0.169 0 0.306 0.137 0.306 0.306zM35.263 20.605h3.058v0.306c0 0.169-0.137 0.306-0.306 0.306h-2.446c-0.169 0-0.306-0.137-0.306-0.306v-0.306zM29.147 20.91c0-0.169 0.137-0.306 0.306-0.306h5.199v0.306c0 0.507 0.411 0.917 0.917 0.917h2.446c0.507 0 0.918-0.411 0.918-0.917v-0.306h5.199c0.169 0 0.306 0.137 0.306 0.306v1.223c0 0.169-0.137 0.306-0.306 0.306h-14.679c-0.169 0-0.306-0.137-0.306-0.306v-1.223z"></path>
</svg>
